<svg width="76" height="76" viewBox="0 0 76 76" fill="none" xmlns="http://www.w3.org/2000/svg">
<g opacity="0.8">
<path d="M68.875 29.6875V19C68.875 18.0552 68.4997 17.149 67.8316 16.4809C67.1635 15.8128 66.2573 15.4375 65.3125 15.4375H53.4375C52.4927 15.4375 51.5865 15.8128 50.9184 16.4809C50.2503 17.149 49.875 18.0552 49.875 19V29.6875H68.875Z" fill="#FBFBFB"/>
<path d="M59.375 14.25C61.9984 14.25 64.125 12.1234 64.125 9.5C64.125 6.87665 61.9984 4.75 59.375 4.75C56.7516 4.75 54.625 6.87665 54.625 9.5C54.625 12.1234 56.7516 14.25 59.375 14.25Z" fill="#FFCF94"/>
<path d="M26.125 29.6875V19C26.125 18.0552 25.7497 17.149 25.0816 16.4809C24.4135 15.8128 23.5073 15.4375 22.5625 15.4375H10.6875C9.74267 15.4375 8.83653 15.8128 8.16843 16.4809C7.50033 17.149 7.125 18.0552 7.125 19V29.6875H26.125Z" fill="#FBFBFB"/>
<path d="M16.625 14.25C19.2484 14.25 21.375 12.1234 21.375 9.5C21.375 6.87665 19.2484 4.75 16.625 4.75C14.0016 4.75 11.875 6.87665 11.875 9.5C11.875 12.1234 14.0016 14.25 16.625 14.25Z" fill="#FFCF94"/>
<path d="M72.4375 29.6875H3.5625V72.4375H72.4375V29.6875Z" fill="#7A96C3"/>
<path d="M38 67.6875C47.1817 67.6875 54.625 60.2442 54.625 51.0625C54.625 41.8808 47.1817 34.4375 38 34.4375C28.8183 34.4375 21.375 41.8808 21.375 51.0625C21.375 60.2442 28.8183 67.6875 38 67.6875Z" fill="#FBFBFB"/>
<path d="M36.2496 49.8544C39.4974 53.0987 38.7694 59.0849 38.7694 59.0849C38.7694 59.0849 32.7773 59.8116 29.5295 56.5674C26.2817 53.3231 27.0084 47.3369 27.0084 47.3369C27.0084 47.3369 33.0017 46.6114 36.2496 49.8544Z" fill="#629F00"/>
<path d="M46.359 56.4359C42.6469 60.1421 35.434 58.9523 35.434 58.9523C35.434 58.9523 34.2465 51.7524 37.9539 48.0451C41.6612 44.3377 48.8789 45.5276 48.8789 45.5276C48.8789 45.5276 50.0699 52.725 46.359 56.4359Z" fill="#398600"/>
<path d="M30.875 29.6875V21.375L27.3125 24.9375L26.125 32.0625H21.9688L23.1562 22.5625L27.6687 17.1463C28.1146 16.6114 28.6726 16.1811 29.3032 15.8858C29.9338 15.5905 30.6216 15.4374 31.3179 15.4375H44.6821C45.3784 15.4374 46.0662 15.5905 46.6968 15.8858C47.3274 16.1811 47.8854 16.6114 48.3313 17.1463L52.8438 22.5625L54.0312 32.0625H49.875L48.6875 24.9375L45.125 21.375V29.6875H30.875Z" fill="#FBFBFB"/>
<path d="M38 14.25C40.9513 14.25 43.3438 11.8575 43.3438 8.90625C43.3438 5.95498 40.9513 3.5625 38 3.5625C35.0487 3.5625 32.6562 5.95498 32.6562 8.90625C32.6562 11.8575 35.0487 14.25 38 14.25Z" fill="#FFDBAC"/>
<path d="M72.4375 28.5004H70.0625V19.0004C70.0625 17.7407 69.5621 16.5325 68.6713 15.6417C67.7805 14.7509 66.5723 14.2504 65.3125 14.2504H62.9007C63.9065 13.5081 64.6524 12.4673 65.0321 11.2762C65.4117 10.0852 65.4057 8.8047 65.015 7.61724C64.6243 6.42977 63.8687 5.39593 62.856 4.66303C61.8433 3.93013 60.6251 3.53556 59.375 3.53556C58.1249 3.53556 56.9067 3.93013 55.894 4.66303C54.8813 5.39593 54.1257 6.42977 53.735 7.61724C53.3443 8.8047 53.3383 10.0852 53.7179 11.2762C54.0976 12.4673 54.8435 13.5081 55.8493 14.2504H53.4375C52.6203 14.2528 51.8176 14.4665 51.1074 14.8708C50.3972 15.2751 49.8037 15.8562 49.3846 16.5578L49.2432 16.3879C48.6868 15.7181 47.9894 15.1792 47.2008 14.8097C46.4122 14.4402 45.5517 14.2493 44.6809 14.2504H41.743C42.8821 13.4546 43.7377 12.3162 44.1854 11.0007C44.6331 9.6852 44.6495 8.26121 44.2324 6.93573C43.8152 5.61024 42.9861 4.45236 41.8657 3.63039C40.7453 2.80843 39.392 2.36523 38.0024 2.36523C36.6128 2.36523 35.2594 2.80843 34.139 3.63039C33.0186 4.45236 32.1896 5.61024 31.7724 6.93573C31.3552 8.26121 31.3717 9.6852 31.8194 11.0007C32.2671 12.3162 33.1226 13.4546 34.2617 14.2504H31.3191C30.4484 14.2494 29.5882 14.4404 28.7998 14.8098C28.0114 15.1793 27.3142 15.7181 26.7579 16.3879L26.6154 16.5589C26.1964 15.8572 25.603 15.2758 24.8928 14.8713C24.1826 14.4668 23.3798 14.2529 22.5625 14.2504H20.1507C21.1565 13.5081 21.9024 12.4673 22.2821 11.2762C22.6617 10.0852 22.6558 8.8047 22.265 7.61724C21.8743 6.42977 21.1187 5.39593 20.106 4.66303C19.0933 3.93013 17.8751 3.53556 16.625 3.53556C15.3749 3.53556 14.1567 3.93013 13.144 4.66303C12.1313 5.39593 11.3757 6.42977 10.985 7.61724C10.5942 8.8047 10.5883 10.0852 10.9679 11.2762C11.3476 12.4673 12.0935 13.5081 13.0993 14.2504H10.6875C9.42772 14.2504 8.21954 14.7509 7.32874 15.6417C6.43794 16.5325 5.9375 17.7407 5.9375 19.0004V28.5004H3.5625C3.24756 28.5004 2.94551 28.6255 2.72281 28.8482C2.50011 29.0709 2.375 29.373 2.375 29.6879V72.4379C2.375 72.7529 2.50011 73.0549 2.72281 73.2776C2.94551 73.5003 3.24756 73.6254 3.5625 73.6254H72.4375C72.7524 73.6254 73.0545 73.5003 73.2772 73.2776C73.4999 73.0549 73.625 72.7529 73.625 72.4379V29.6879C73.625 29.373 73.4999 29.0709 73.2772 28.8482C73.0545 28.6255 72.7524 28.5004 72.4375 28.5004ZM55.8125 9.50045C55.8125 8.79585 56.0214 8.10708 56.4129 7.52123C56.8043 6.93538 57.3607 6.47876 58.0117 6.20913C58.6627 5.93949 59.3789 5.86894 60.07 6.0064C60.7611 6.14386 61.3958 6.48316 61.8941 6.98138C62.3923 7.4796 62.7316 8.11438 62.869 8.80544C63.0065 9.4965 62.936 10.2128 62.6663 10.8638C62.3967 11.5147 61.9401 12.0711 61.3542 12.4626C60.7684 12.854 60.0796 13.0629 59.375 13.0629C58.4302 13.0629 57.524 12.6876 56.8559 12.0195C56.1878 11.3514 55.8125 10.4453 55.8125 9.50045ZM53.4375 16.6254H65.3125C65.9424 16.6254 66.5465 16.8757 66.9919 17.3211C67.4373 17.7665 67.6875 18.3706 67.6875 19.0004V28.5004H54.7829L54.0218 22.4157C53.9938 22.1898 53.9014 21.9767 53.7558 21.8018L51.1017 18.6169C51.1925 18.0622 51.477 17.5577 51.9047 17.1931C52.3323 16.8285 52.8755 16.6273 53.4375 16.6254ZM33.8438 8.9067C33.8438 8.08467 34.0875 7.2811 34.5442 6.59761C35.0009 5.91412 35.65 5.3814 36.4095 5.06682C37.1689 4.75225 38.0046 4.66994 38.8108 4.83031C39.6171 4.99068 40.3577 5.38652 40.9389 5.96779C41.5202 6.54905 41.916 7.28962 42.0764 8.09585C42.2368 8.90209 42.1544 9.73777 41.8399 10.4972C41.5253 11.2567 40.9926 11.9058 40.3091 12.3625C39.6256 12.8192 38.822 13.0629 38 13.0629C36.8977 13.0629 35.8405 12.6251 35.0611 11.8456C34.2816 11.0662 33.8438 10.009 33.8438 8.9067ZM28.5819 17.9068C28.916 17.5052 29.3345 17.1822 29.8076 16.9608C30.2807 16.7393 30.7968 16.6248 31.3191 16.6254H44.6809C45.2024 16.6257 45.7174 16.7407 46.1894 16.9624C46.6614 17.184 47.0789 17.5068 47.4121 17.9079L51.7026 23.0558L52.6858 30.8754H50.8808L49.8584 24.7432C49.8178 24.499 49.702 24.2735 49.5271 24.0984L45.9646 20.5359C45.7985 20.3699 45.5869 20.2568 45.3566 20.211C45.1263 20.1652 44.8876 20.1887 44.6706 20.2786C44.4536 20.3684 44.2682 20.5206 44.1377 20.7158C44.0072 20.9111 43.9375 21.1406 43.9375 21.3754V28.5004H32.0625V21.3754C32.0625 21.1406 31.9928 20.9111 31.8623 20.7158C31.7318 20.5206 31.5464 20.3684 31.3294 20.2786C31.1124 20.1887 30.8737 20.1652 30.6434 20.211C30.4131 20.2568 30.2015 20.3699 30.0354 20.5359L26.4729 24.0984C26.298 24.2735 26.1821 24.499 26.1416 24.7432L25.1192 30.8754H23.3142L24.2915 23.0558L28.5819 17.9068ZM48.0771 28.5004H46.3125V24.2421L47.5784 25.5079L48.0771 28.5004ZM29.6875 24.2421V28.5004H27.9229L28.4216 25.5079L29.6875 24.2421ZM13.0625 9.50045C13.0625 8.79585 13.2714 8.10708 13.6629 7.52123C14.0543 6.93538 14.6107 6.47876 15.2617 6.20913C15.9127 5.93949 16.629 5.86894 17.32 6.0064C18.0111 6.14386 18.6458 6.48316 19.1441 6.98138C19.6423 7.4796 19.9816 8.11438 20.119 8.80544C20.2565 9.4965 20.186 10.2128 19.9163 10.8638C19.6467 11.5147 19.1901 12.0711 18.6042 12.4626C18.0184 12.854 17.3296 13.0629 16.625 13.0629C15.6802 13.0629 14.774 12.6876 14.1059 12.0195C13.4378 11.3514 13.0625 10.4453 13.0625 9.50045ZM8.3125 19.0004C8.3125 18.3706 8.56272 17.7665 9.00812 17.3211C9.45352 16.8757 10.0576 16.6254 10.6875 16.6254H22.5625C23.1245 16.6273 23.6677 16.8285 24.0953 17.1931C24.523 17.5577 24.8075 18.0622 24.8983 18.6169L22.2443 21.8018C22.0986 21.9767 22.0062 22.1898 21.9782 22.4157L21.2171 28.5004H8.3125V19.0004ZM71.25 71.2504H4.75V30.8754H20.9202L20.7907 31.9157C20.7699 32.0827 20.7848 32.2523 20.8344 32.4132C20.8841 32.574 20.9673 32.7225 21.0787 32.8487C21.1901 32.9749 21.3271 33.076 21.4805 33.1453C21.634 33.2145 21.8004 33.2504 21.9688 33.2504H26.125C26.4061 33.2503 26.678 33.1505 26.8924 32.9687C27.1068 32.7869 27.2498 32.535 27.2959 32.2577L27.5263 30.8754H48.4738L48.7041 32.2577C48.7502 32.535 48.8932 32.7869 49.1076 32.9687C49.322 33.1505 49.5939 33.2503 49.875 33.2504H54.0312C54.1996 33.2504 54.366 33.2145 54.5195 33.1453C54.6729 33.076 54.8099 32.9749 54.9213 32.8487C55.0326 32.7225 55.1159 32.574 55.1656 32.4132C55.2152 32.2523 55.2301 32.0827 55.2093 31.9157L55.0798 30.8754H71.25V71.2504Z" fill="#27303E"/>
<path d="M38 33.25C34.477 33.25 31.0332 34.2947 28.1039 36.2519C25.1747 38.2092 22.8916 40.9911 21.5434 44.246C20.1952 47.5008 19.8425 51.0823 20.5298 54.5375C21.2171 57.9928 22.9135 61.1667 25.4047 63.6578C27.8958 66.149 31.0697 67.8454 34.525 68.5327C37.9802 69.22 41.5617 68.8673 44.8166 67.5191C48.0714 66.1709 50.8533 63.8878 52.8106 60.9586C54.7678 58.0293 55.8125 54.5855 55.8125 51.0625C55.8072 46.34 53.9288 41.8124 50.5894 38.4731C47.2501 35.1337 42.7225 33.2553 38 33.25ZM38 66.5C34.9468 66.5 31.9621 65.5946 29.4234 63.8983C26.8847 62.202 24.906 59.791 23.7376 56.9702C22.5692 54.1493 22.2635 51.0454 22.8591 48.0508C23.4548 45.0562 24.9251 42.3055 27.084 40.1465C29.243 37.9876 31.9937 36.5173 34.9883 35.9216C37.9829 35.326 41.0868 35.6317 43.9077 36.8001C46.7285 37.9685 49.1395 39.9472 50.8358 42.4859C52.5321 45.0246 53.4375 48.0093 53.4375 51.0625C53.4328 55.1553 51.8048 59.0792 48.9108 61.9733C46.0167 64.8673 42.0928 66.4953 38 66.5Z" fill="black"/>
<path d="M37.1234 47.2062C36.7976 47.5371 36.5001 47.8946 36.234 48.275C32.5527 45.5022 27.1116 46.1161 26.8658 46.1458C26.6019 46.1776 26.3563 46.2971 26.1683 46.4851C25.9804 46.673 25.8609 46.9186 25.8291 47.1825C25.797 47.4509 25.0774 53.7814 28.6874 57.4057C31.1871 59.8923 34.9396 60.3376 37.2813 60.3376C37.5046 60.3376 37.7148 60.3376 37.9095 60.3281H37.9356H38.1055C40.7512 60.3281 44.645 59.8306 47.1993 57.2762C51.2938 53.1829 50.1028 45.6459 50.0493 45.3276C50.0087 45.0829 49.8925 44.8571 49.717 44.6818C49.5415 44.5065 49.3156 44.3906 49.0708 44.3503C48.7526 44.304 41.2167 43.1129 37.1234 47.2062ZM34.3577 52.9989L32.0516 50.6927L30.3725 52.3683L34.081 56.0757C34.081 56.6481 34.0917 57.167 34.119 57.6099C32.7197 57.343 31.4224 56.6916 30.3725 55.7289C28.3074 53.6567 28.1031 50.1477 28.1376 48.4531C29.7502 48.4116 32.9885 48.6229 35.0868 50.4184C34.7593 51.2524 34.5151 52.1168 34.3577 52.9989ZM45.5202 55.6031C43.562 57.5601 40.3807 57.9484 38.1577 57.9507L44.683 51.4195L43.0039 49.7404L36.456 56.2871C36.456 54.0605 36.8325 50.8519 38.8025 48.8818C41.3212 46.3631 45.8895 46.432 47.805 46.5971C47.9641 48.5149 48.0389 53.0808 45.5202 55.6031Z" fill="black"/>
</g>
</svg>
