<svg width="40" height="40" viewBox="0 0 40 40" fill="none" xmlns="http://www.w3.org/2000/svg">
<rect width="40" height="40" rx="4" fill="#E9EEF5"/>
<path d="M20.0076 17.7656C22.4723 17.7656 24.4703 15.7785 24.4703 13.3272C24.4703 10.8758 22.4723 8.88867 20.0076 8.88867C17.5429 8.88867 15.5449 10.8758 15.5449 13.3272C15.5449 15.7785 17.5429 17.7656 20.0076 17.7656Z" fill="#6485B9"/>
<path d="M31.0586 28.0344C30.5957 25.9382 29.5342 24.0194 28.0016 22.5085C27.6297 22.1373 27.2266 21.7982 26.7967 21.495C24.8391 20.0346 22.453 19.2548 20.006 19.2758C17.0139 19.2606 14.137 20.4226 12.0029 22.5085C10.4703 24.0194 9.40887 25.9382 8.94596 28.0344C8.8655 28.4051 8.86984 28.789 8.95868 29.1578C9.04751 29.5265 9.21856 29.8707 9.45917 30.1649C9.70835 30.4654 10.0221 30.7064 10.3774 30.8703C10.7327 31.0342 11.1204 31.1167 11.512 31.1118H28.5C28.8927 31.112 29.2805 31.0244 29.6346 30.8553C29.9886 30.6863 30.2999 30.4402 30.5454 30.1353C30.7817 29.8446 30.9502 29.5054 31.039 29.1421C31.1277 28.7789 31.1344 28.4006 31.0586 28.0344Z" fill="#6485B9"/>
</svg>
