<svg width="76" height="76" viewBox="0 0 76 76" fill="none" xmlns="http://www.w3.org/2000/svg">
<g opacity="0.8">
<path d="M67.6875 16.625H8.3125L3.5625 29.6875H4.75V36.8125C4.75 38.0723 5.25044 39.2805 6.14124 40.1713C7.03204 41.0621 8.24022 41.5625 9.5 41.5625C10.7598 41.5625 11.968 41.0621 12.8588 40.1713C13.7496 39.2805 14.25 38.0723 14.25 36.8125C14.25 38.0723 14.7504 39.2805 15.6412 40.1713C16.532 41.0621 17.7402 41.5625 19 41.5625C20.2598 41.5625 21.468 41.0621 22.3588 40.1713C23.2496 39.2805 23.75 38.0723 23.75 36.8125C23.75 38.0723 24.2504 39.2805 25.1412 40.1713C26.032 41.0621 27.2402 41.5625 28.5 41.5625C29.7598 41.5625 30.968 41.0621 31.8588 40.1713C32.7496 39.2805 33.25 38.0723 33.25 36.8125C33.25 38.0723 33.7504 39.2805 34.6412 40.1713C35.532 41.0621 36.7402 41.5625 38 41.5625C39.2598 41.5625 40.468 41.0621 41.3588 40.1713C42.2496 39.2805 42.75 38.0723 42.75 36.8125C42.75 38.0723 43.2504 39.2805 44.1412 40.1713C45.032 41.0621 46.2402 41.5625 47.5 41.5625C48.7598 41.5625 49.968 41.0621 50.8588 40.1713C51.7496 39.2805 52.25 38.0723 52.25 36.8125C52.25 38.0723 52.7504 39.2805 53.6412 40.1713C54.532 41.0621 55.7402 41.5625 57 41.5625C58.2598 41.5625 59.468 41.0621 60.3588 40.1713C61.2496 39.2805 61.75 38.0723 61.75 36.8125C61.75 38.0723 62.2504 39.2805 63.1412 40.1713C64.032 41.0621 65.2402 41.5625 66.5 41.5625C67.7598 41.5625 68.968 41.0621 69.8588 40.1713C70.7496 39.2805 71.25 38.0723 71.25 36.8125V29.6875H72.4375L67.6875 16.625Z" fill="#7A96C3"/>
<path d="M38 24.9375C43.9025 24.9375 48.6875 20.1525 48.6875 14.25C48.6875 8.34746 43.9025 3.5625 38 3.5625C32.0975 3.5625 27.3125 8.34746 27.3125 14.25C27.3125 20.1525 32.0975 24.9375 38 24.9375Z" fill="#F0BE3D"/>
<path d="M38 53.4375C39.5747 53.4375 41.0849 54.0631 42.1984 55.1766C43.3119 56.2901 43.9375 57.8003 43.9375 59.375V72.4375H32.0625V59.375C32.0625 57.8003 32.6881 56.2901 33.8016 55.1766C34.9151 54.0631 36.4253 53.4375 38 53.4375Z" fill="#91A8CD"/>
<path d="M4.75 51.0625H11.875V62.9375H4.75V51.0625ZM64.125 51.0625H71.25V62.9375H64.125V51.0625Z" fill="#91A8CD"/>
<path d="M73.5527 29.2819L68.8027 16.2194C68.7194 15.9905 68.5678 15.7928 68.3683 15.653C68.1688 15.5132 67.9312 15.4381 67.6877 15.438H49.8146C49.9803 13.7868 49.7982 12.1192 49.2798 10.5428C48.7615 8.96634 47.9185 7.51604 46.8052 6.28541C45.6919 5.05478 44.3331 4.07115 42.8163 3.39796C41.2995 2.72477 39.6584 2.37695 37.999 2.37695C36.3395 2.37695 34.6984 2.72477 33.1817 3.39796C31.6649 4.07115 30.306 5.05478 29.1927 6.28541C28.0794 7.51604 27.2365 8.96634 26.7181 10.5428C26.1998 12.1192 26.0176 13.7868 26.1833 15.438H8.31265C8.06909 15.4381 7.83147 15.5132 7.63201 15.653C7.43254 15.7928 7.28088 15.9905 7.19758 16.2194L2.44758 29.2819C2.38232 29.4612 2.36123 29.6536 2.38611 29.8428C2.41099 30.032 2.4811 30.2124 2.5905 30.3688C2.69991 30.5251 2.84538 30.6528 3.0146 30.741C3.18383 30.8292 3.37182 30.8754 3.56265 30.8755V72.438C3.56265 72.753 3.68776 73.055 3.91046 73.2777C4.13316 73.5004 4.4352 73.6255 4.75015 73.6255H71.2502C71.5651 73.6255 71.8672 73.5004 72.0899 73.2777C72.3126 73.055 72.4377 72.753 72.4377 72.438V30.8755C72.6285 30.8754 72.8165 30.8292 72.9857 30.741C73.1549 30.6528 73.3004 30.5251 73.4098 30.3688C73.5192 30.2124 73.5893 30.032 73.6142 29.8428C73.6391 29.6536 73.618 29.4612 73.5527 29.2819ZM38.0002 4.75047C39.8791 4.75047 41.7158 5.30764 43.2781 6.35151C44.8403 7.39538 46.058 8.87908 46.777 10.615C47.4961 12.3509 47.6842 14.261 47.3176 16.1038C46.9511 17.9467 46.0463 19.6394 44.7177 20.968C43.3891 22.2966 41.6963 23.2014 39.8535 23.5679C38.0107 23.9345 36.1006 23.7464 34.3647 23.0273C32.6288 22.3083 31.1451 21.0907 30.1012 19.5284C29.0573 17.9661 28.5002 16.1294 28.5002 14.2505C28.503 11.7318 29.5048 9.31707 31.2858 7.53608C33.0667 5.7551 35.4815 4.7533 38.0002 4.75047ZM9.1439 17.813H26.6726C27.4237 20.183 28.8968 22.2589 30.8858 23.7505H21.3752V26.1255H54.6252V23.7505H45.1145C47.1035 22.2589 48.5766 20.183 49.3277 17.813H66.8564L70.7419 28.5005H5.2584L9.1439 17.813ZM15.4376 30.8755H22.5627V36.813C22.5627 37.7578 22.1873 38.664 21.5192 39.3321C20.8511 40.0002 19.945 40.3755 19.0002 40.3755C18.0553 40.3755 17.1492 40.0002 16.4811 39.3321C15.813 38.664 15.4376 37.7578 15.4376 36.813V30.8755ZM24.9377 30.8755H32.0627V36.813C32.0627 37.7578 31.6873 38.664 31.0192 39.3321C30.3511 40.0002 29.445 40.3755 28.5002 40.3755C27.5553 40.3755 26.6492 40.0002 25.9811 39.3321C25.313 38.664 24.9377 37.7578 24.9377 36.813V30.8755ZM34.4377 30.8755H41.5627V36.813C41.5627 37.7578 41.1873 38.664 40.5192 39.3321C39.8511 40.0002 38.945 40.3755 38.0002 40.3755C37.0553 40.3755 36.1492 40.0002 35.4811 39.3321C34.813 38.664 34.4377 37.7578 34.4377 36.813V30.8755ZM43.9377 30.8755H51.0627V36.813C51.0627 37.7578 50.6873 38.664 50.0192 39.3321C49.3511 40.0002 48.445 40.3755 47.5002 40.3755C46.5553 40.3755 45.6492 40.0002 44.9811 39.3321C44.313 38.664 43.9377 37.7578 43.9377 36.813V30.8755ZM53.4377 30.8755H60.5627V36.813C60.5627 37.7578 60.1873 38.664 59.5192 39.3321C58.8511 40.0002 57.945 40.3755 57.0002 40.3755C56.0553 40.3755 55.1492 40.0002 54.4811 39.3321C53.813 38.664 53.4377 37.7578 53.4377 36.813V30.8755ZM13.0626 30.8755V36.813C13.0626 37.7578 12.6873 38.664 12.0192 39.3321C11.3511 40.0002 10.445 40.3755 9.50015 40.3755C8.55531 40.3755 7.64918 40.0002 6.98108 39.3321C6.31298 38.664 5.93765 37.7578 5.93765 36.813V30.8755H13.0626ZM5.93765 52.2505H10.6876V61.7505H5.93765V52.2505ZM42.7502 71.2505H33.2502V59.3755C33.2502 58.1157 33.7506 56.9075 34.6414 56.0168C35.5322 55.1259 36.7404 54.6255 38.0002 54.6255C39.2599 54.6255 40.4681 55.1259 41.3589 56.0168C42.2497 56.9075 42.7502 58.1157 42.7502 59.3755V71.2505ZM70.0627 61.7505H65.3127V52.2505H70.0627V61.7505ZM70.0627 49.8755H64.1252C63.8102 49.8755 63.5082 50.0006 63.2855 50.2233C63.0628 50.446 62.9377 50.7481 62.9377 51.063V62.938C62.9377 63.253 63.0628 63.555 63.2855 63.7777C63.5082 64.0004 63.8102 64.1255 64.1252 64.1255H70.0627V71.2505H45.1252V59.3755C45.1252 57.4858 44.3745 55.6736 43.0383 54.3374C41.7021 53.0012 39.8898 52.2505 38.0002 52.2505C36.1105 52.2505 34.2982 53.0012 32.962 54.3374C31.6258 55.6736 30.8752 57.4858 30.8752 59.3755V71.2505H5.93765V64.1255H11.8751C12.1901 64.1255 12.4921 64.0004 12.7148 63.7777C12.9375 63.555 13.0626 63.253 13.0626 62.938V51.063C13.0626 50.7481 12.9375 50.446 12.7148 50.2233C12.4921 50.0006 12.1901 49.8755 11.8751 49.8755H5.93765V41.5321C6.55731 42.0105 7.26658 42.3597 8.02353 42.5592C8.78047 42.7588 9.56974 42.8046 10.3447 42.6938C11.1196 42.5831 11.8645 42.3182 12.5353 41.9147C13.2061 41.5112 13.7892 40.9773 14.2501 40.3446C14.7963 41.0921 15.5111 41.7001 16.3365 42.1192C17.1618 42.5383 18.0745 42.7568 19.0002 42.7568C19.9258 42.7568 20.8385 42.5383 21.6638 42.1192C22.4892 41.7001 23.204 41.0921 23.7502 40.3446C24.2963 41.0921 25.0111 41.7001 25.8365 42.1192C26.6618 42.5383 27.5745 42.7568 28.5002 42.7568C29.4258 42.7568 30.3385 42.5383 31.1639 42.1192C31.9892 41.7001 32.704 41.0921 33.2502 40.3446C33.7963 41.0921 34.5111 41.7001 35.3365 42.1192C36.1618 42.5383 37.0745 42.7568 38.0002 42.7568C38.9259 42.7568 39.8385 42.5383 40.6639 42.1192C41.4892 41.7001 42.204 41.0921 42.7502 40.3446C43.2963 41.0921 44.0111 41.7001 44.8365 42.1192C45.6618 42.5383 46.5745 42.7568 47.5002 42.7568C48.4259 42.7568 49.3385 42.5383 50.1639 42.1192C50.9892 41.7001 51.704 41.0921 52.2502 40.3446C52.7963 41.0921 53.5111 41.7001 54.3365 42.1192C55.1618 42.5383 56.0745 42.7568 57.0002 42.7568C57.9259 42.7568 58.8385 42.5383 59.6639 42.1192C60.4892 41.7001 61.204 41.0921 61.7502 40.3446C62.2111 40.9773 62.7942 41.5112 63.465 41.9147C64.1358 42.3182 64.8807 42.5831 65.6556 42.6938C66.4306 42.8046 67.2198 42.7588 67.9768 42.5592C68.7337 42.3597 69.443 42.0105 70.0627 41.5321V49.8755ZM70.0627 36.813C70.0627 37.7578 69.6873 38.664 69.0192 39.3321C68.3511 40.0002 67.445 40.3755 66.5002 40.3755C65.5553 40.3755 64.6492 40.0002 63.9811 39.3321C63.313 38.664 62.9377 37.7578 62.9377 36.813V30.8755H70.0627V36.813Z" fill="#204C94"/>
<circle cx="38" cy="14.25" r="4.75" fill="#C8940D"/>
</g>
</svg>
