<svg width="76" height="76" viewBox="0 0 76 76" fill="none" xmlns="http://www.w3.org/2000/svg">
<g opacity="0.8">
<path d="M4.75 50.375H33.25C33.4323 50.375 33.6072 50.4474 33.7361 50.5764C33.8651 50.7053 33.9375 50.8802 33.9375 51.0625V72.4375C33.9375 72.6198 33.8651 72.7947 33.7361 72.9236C33.6072 73.0526 33.4323 73.125 33.25 73.125H4.75C4.56766 73.125 4.39279 73.0526 4.26387 72.9236C4.13493 72.7947 4.0625 72.6198 4.0625 72.4375V51.0625C4.0625 50.8802 4.13493 50.7053 4.26386 50.5764C4.39279 50.4474 4.56766 50.375 4.75 50.375ZM52.25 42.25H23.75C23.5677 42.25 23.3928 42.1776 23.2639 42.0486C23.1349 41.9197 23.0625 41.7448 23.0625 41.5625V20.1875C23.0625 20.0052 23.1349 19.8303 23.2639 19.7014C23.3928 19.5724 23.5677 19.5 23.75 19.5H52.25C52.4323 19.5 52.6072 19.5724 52.7361 19.7014C52.8651 19.8303 52.9375 20.0052 52.9375 20.1875V41.5625C52.9375 41.7448 52.8651 41.9197 52.7361 42.0486C52.6072 42.1776 52.4323 42.25 52.25 42.25ZM42.75 50.375H71.25C71.4323 50.375 71.6072 50.4474 71.7361 50.5764C71.8651 50.7053 71.9375 50.8802 71.9375 51.0625V72.4375C71.9375 72.6198 71.8651 72.7947 71.7361 72.9236C71.6072 73.0526 71.4323 73.125 71.25 73.125H42.75C42.5677 73.125 42.3928 73.0526 42.2639 72.9236C42.1349 72.7947 42.0625 72.6198 42.0625 72.4375V51.0625C42.0625 50.8802 42.1349 50.7053 42.2639 50.5764C42.3928 50.4474 42.5677 50.375 42.75 50.375Z" stroke="#204C94"/>
<path d="M52.1174 9.39201L52.1172 9.39206L22.7083 19.5163C22.5299 19.5775 22.3335 19.5671 22.1635 19.4883C21.9942 19.4098 21.868 19.2714 21.8078 19.1076C21.8077 19.1074 21.8076 19.1071 21.8075 19.1069L19.405 12.5111C19.4049 12.5107 19.4047 12.5103 19.4046 12.51C19.3461 12.346 19.3561 12.1666 19.4334 12.0091L18.9845 11.7889L19.4334 12.0091C19.5109 11.851 19.6517 11.7248 19.8291 11.6626C19.8294 11.6624 19.8298 11.6623 19.8301 11.6622L49.2365 1.53922C49.2369 1.53909 49.2372 1.53897 49.2376 1.53885C49.4169 1.47839 49.6137 1.48891 49.7845 1.56751C49.868 1.60618 49.9419 1.66003 50.0024 1.72531C50.063 1.79065 50.109 1.86617 50.1386 1.94724C50.1386 1.94728 50.1386 1.94731 50.1386 1.94735L52.541 8.54602L52.5411 8.54631C52.5707 8.62763 52.5835 8.71341 52.5789 8.79889C52.5743 8.88441 52.5524 8.96868 52.514 9.04694C52.4756 9.12524 52.4213 9.19636 52.3534 9.25579L52.6827 9.63205L52.3534 9.2558C52.2854 9.31526 52.2053 9.36176 52.1174 9.39201ZM3.2 41.1665H34.4C34.5901 41.1665 34.7697 41.2401 34.9 41.3667C35.0298 41.4929 35.1 41.661 35.1 41.8332V48.8333C35.1 49.0055 35.0298 49.1736 34.9 49.2998C34.7697 49.4264 34.5901 49.5 34.4 49.5H3.2C3.00988 49.5 2.83028 49.4264 2.70001 49.2998C2.57023 49.1736 2.5 49.0055 2.5 48.8333V41.8332C2.5 41.661 2.57023 41.4929 2.70001 41.3667C2.83028 41.2401 3.00988 41.1665 3.2 41.1665ZM41.6 41.1665H72.8C72.9901 41.1665 73.1697 41.2401 73.3 41.3667C73.4298 41.4929 73.5 41.661 73.5 41.8332V48.8333C73.5 49.0055 73.4298 49.1736 73.3 49.2998C73.1697 49.4264 72.9901 49.5 72.8 49.5H41.6C41.4099 49.5 41.2303 49.4264 41.1 49.2998C40.9702 49.1736 40.9 49.0055 40.9 48.8333V41.8332C40.9 41.661 40.9702 41.4929 41.1 41.3667C41.2303 41.2401 41.4099 41.1665 41.6 41.1665Z" fill="#7A96C3" stroke="#204C94"/>
<path d="M34.4144 30.375L41.5863 30.375C43.2566 30.375 44.6247 29.0159 44.625 27.2894C44.6239 26.4836 44.3034 25.7112 43.7336 25.1414C43.1639 24.5717 42.3916 24.2512 41.5859 24.25H34.4137C32.7434 24.25 31.3754 25.6091 31.375 27.3356L34.4144 30.375ZM34.4144 30.375C34.4143 30.375 34.4142 30.375 34.4141 30.375M34.4144 30.375L34.4141 30.375M34.4141 30.375C33.6084 30.3738 32.8361 30.0533 32.2664 29.4836C31.6967 28.9138 31.3761 28.1414 31.375 27.3356L34.4141 30.375ZM22.5863 61.25H15.4144C14.6086 61.2489 13.8362 60.9284 13.2664 60.3586C12.6967 59.7889 12.3762 59.0166 12.375 58.2109C12.3752 56.4843 13.7433 55.125 15.4137 55.125H22.5856C23.3914 55.1261 24.1638 55.4466 24.7336 56.0164C25.3034 56.5862 25.6239 57.3586 25.625 58.1644C25.6247 59.8909 24.2566 61.25 22.5863 61.25ZM15.4137 56.5C14.9725 56.5 14.5493 56.6753 14.2373 56.9873C13.9253 57.2993 13.75 57.7225 13.75 58.1637C13.75 59.1166 14.4822 59.875 15.4137 59.875H22.5863C23.0275 59.875 23.4507 59.6997 23.7627 59.3877C24.0747 59.0757 24.25 58.6525 24.25 58.2113C24.25 57.2584 23.5178 56.5 22.5863 56.5H15.4137ZM60.5863 61.25H53.4144C52.6086 61.2489 51.8362 60.9284 51.2664 60.3586C50.6966 59.7888 50.3761 59.0164 50.375 58.2106C50.3753 56.4841 51.7434 55.125 53.4137 55.125H60.5856C61.3914 55.1261 62.1638 55.4466 62.7336 56.0164C63.3034 56.5862 63.6239 57.3586 63.625 58.1644C63.6247 59.8909 62.2566 61.25 60.5863 61.25ZM53.4137 56.5C52.9725 56.5 52.5493 56.6753 52.2373 56.9873C51.9253 57.2993 51.75 57.7225 51.75 58.1637C51.75 59.1166 52.4822 59.875 53.4137 59.875H60.5863C61.0275 59.875 61.4507 59.6997 61.7627 59.3877C62.0747 59.0757 62.25 58.6525 62.25 58.2113C62.25 57.2584 61.5178 56.5 60.5863 56.5H53.4137ZM34.4137 25.625C33.9725 25.625 33.5493 25.8003 33.2373 26.1123C32.9253 26.4243 32.75 26.8475 32.75 27.2887C32.75 28.2416 33.4822 29 34.4137 29H41.5863C41.8047 29 42.0211 28.957 42.2229 28.8734C42.4248 28.7897 42.6082 28.6672 42.7627 28.5127C42.9172 28.3582 43.0397 28.1748 43.1234 27.9729C43.207 27.7711 43.25 27.5547 43.25 27.3363C43.25 26.3834 42.5178 25.625 41.5863 25.625H34.4137Z" stroke="#204C94"/>
<path d="M52.9375 31.6328V41.5623C52.9375 41.7446 52.8651 41.9195 52.7361 42.0484C52.6072 42.1774 52.4323 42.2498 52.25 42.2498H23.75C23.5677 42.2498 23.3928 42.1774 23.2639 42.0484C23.1349 41.9195 23.0625 41.7446 23.0625 41.5623V37.8351C26.3166 39.0631 29.7684 39.6913 33.2506 39.6873M33.2506 39.6873C33.2504 39.6873 33.2502 39.6873 33.25 39.6873V39.1873L33.2506 39.6873Z" fill="#7A96C3" stroke="#204C94"/>
</g>
</svg>
